<svg width="87" height="122" viewBox="0 0 87 122" fill="none" xmlns="http://www.w3.org/2000/svg">
<path d="M9.5 5.61803L10.7083 9.33688L10.8206 9.68237H11.1839H15.0941L11.9306 11.9807L11.6367 12.1943L11.749 12.5398L12.9573 16.2586L9.79389 13.9602L9.5 13.7467L9.20611 13.9602L6.04267 16.2586L7.25099 12.5398L7.36325 12.1943L7.06936 11.9807L3.90592 9.68237H7.81614H8.17942L8.29167 9.33688L9.5 5.61803Z" fill="#E5EA00" fill-opacity="0.67" stroke="#F9E857"/>
<path d="M26.5 5.61803L27.7083 9.33688L27.8206 9.68237H28.1839H32.0941L28.9306 11.9807L28.6367 12.1943L28.749 12.5398L29.9573 16.2586L26.7939 13.9602L26.5 13.7467L26.2061 13.9602L23.0427 16.2586L24.251 12.5398L24.3633 12.1943L24.0694 11.9807L20.9059 9.68237H24.8161H25.1794L25.2917 9.33688L26.5 5.61803Z" fill="#E5EA00" fill-opacity="0.67" stroke="#F9E857"/>
<path d="M43.5 5.61803L44.7083 9.33688L44.8206 9.68237H45.1839H49.0941L45.9306 11.9807L45.6367 12.1943L45.749 12.5398L46.9573 16.2586L43.7939 13.9602L43.5 13.7467L43.2061 13.9602L40.0427 16.2586L41.251 12.5398L41.3633 12.1943L41.0694 11.9807L37.9059 9.68237H41.8161H42.1794L42.2917 9.33688L43.5 5.61803Z" fill="#E5EA00" fill-opacity="0.67" stroke="#F9E857"/>
<path d="M60.5 5.61803L61.7083 9.33688L61.8206 9.68237H62.1839H66.0941L62.9306 11.9807L62.6367 12.1943L62.749 12.5398L63.9573 16.2586L60.7939 13.9602L60.5 13.7467L60.2061 13.9602L57.0427 16.2586L58.251 12.5398L58.3633 12.1943L58.0694 11.9807L54.9059 9.68237H58.8161H59.1794L59.2917 9.33688L60.5 5.61803Z" fill="#E5EA00" fill-opacity="0.67" stroke="#F9E857"/>
<path d="M77.5 5.61803L78.7083 9.33688L78.8206 9.68237H79.1839H83.0941L79.9306 11.9807L79.6367 12.1943L79.749 12.5398L80.9573 16.2586L77.7939 13.9602L77.5 13.7467L77.2061 13.9602L74.0427 16.2586L75.251 12.5398L75.3633 12.1943L75.0694 11.9807L71.9059 9.68237H75.8161H76.1794L76.2917 9.33688L77.5 5.61803Z" fill="#E5EA00" fill-opacity="0.67" stroke="#F9E857"/>
<path d="M9.5 30.618L10.7083 34.3369L10.8206 34.6824H11.1839H15.0941L11.9306 36.9807L11.6367 37.1943L11.749 37.5398L12.9573 41.2586L9.79389 38.9602L9.5 38.7467L9.20611 38.9602L6.04267 41.2586L7.25099 37.5398L7.36325 37.1943L7.06936 36.9807L3.90592 34.6824H7.81614H8.17942L8.29167 34.3369L9.5 30.618Z" fill="#E5EA00" fill-opacity="0.67" stroke="#F9E857"/>
<path d="M26.5 30.618L27.7083 34.3369L27.8206 34.6824H28.1839H32.0941L28.9306 36.9807L28.6367 37.1943L28.749 37.5398L29.9573 41.2586L26.7939 38.9602L26.5 38.7467L26.2061 38.9602L23.0427 41.2586L24.251 37.5398L24.3633 37.1943L24.0694 36.9807L20.9059 34.6824H24.8161H25.1794L25.2917 34.3369L26.5 30.618Z" fill="#E5EA00" fill-opacity="0.67" stroke="#F9E857"/>
<path d="M43.5 30.618L44.7083 34.3369L44.8206 34.6824H45.1839H49.0941L45.9306 36.9807L45.6367 37.1943L45.749 37.5398L46.9573 41.2586L43.7939 38.9602L43.5 38.7467L43.2061 38.9602L40.0427 41.2586L41.251 37.5398L41.3633 37.1943L41.0694 36.9807L37.9059 34.6824H41.8161H42.1794L42.2917 34.3369L43.5 30.618Z" fill="#E5EA00" fill-opacity="0.67" stroke="#F9E857"/>
<path d="M77.5 29L79.1839 34.1824H84.6329L80.2245 37.3853L81.9084 42.5676L77.5 39.3647L73.0916 42.5676L74.7755 37.3853L70.3671 34.1824H75.8161L77.5 29Z" fill="#C4C4C4"/>
<path d="M60.5 30.618L61.7083 34.3369L61.8206 34.6824H62.1839H66.0941L62.9306 36.9807L62.6367 37.1943L62.749 37.5398L63.9573 41.2586L60.7939 38.9602L60.5 38.7467L60.2061 38.9602L57.0427 41.2586L58.251 37.5398L58.3633 37.1943L58.0694 36.9807L54.9059 34.6824H58.8161H59.1794L59.2917 34.3369L60.5 30.618Z" fill="#E5EA00" fill-opacity="0.67" stroke="#F9E857"/>
<path d="M10.5 54.618L11.7083 58.3369L11.8206 58.6824H12.1839H16.0941L12.9306 60.9807L12.6367 61.1943L12.749 61.5398L13.9573 65.2586L10.7939 62.9602L10.5 62.7467L10.2061 62.9602L7.04267 65.2586L8.25099 61.5398L8.36325 61.1943L8.06936 60.9807L4.90592 58.6824H8.81614H9.17942L9.29167 58.3369L10.5 54.618Z" fill="#E5EA00" fill-opacity="0.67" stroke="#F9E857"/>
<path d="M27.5 54.618L28.7083 58.3369L28.8206 58.6824H29.1839H33.0941L29.9306 60.9807L29.6367 61.1943L29.749 61.5398L30.9573 65.2586L27.7939 62.9602L27.5 62.7467L27.2061 62.9602L24.0427 65.2586L25.251 61.5398L25.3633 61.1943L25.0694 60.9807L21.9059 58.6824H25.8161H26.1794L26.2917 58.3369L27.5 54.618Z" fill="#E5EA00" fill-opacity="0.67" stroke="#F9E857"/>
<path d="M44.5 54.618L45.7083 58.3369L45.8206 58.6824H46.1839H50.0941L46.9306 60.9807L46.6367 61.1943L46.749 61.5398L47.9573 65.2586L44.7939 62.9602L44.5 62.7467L44.2061 62.9602L41.0427 65.2586L42.251 61.5398L42.3633 61.1943L42.0694 60.9807L38.9059 58.6824H42.8161H43.1794L43.2917 58.3369L44.5 54.618Z" fill="#E5EA00" fill-opacity="0.67" stroke="#F9E857"/>
<path d="M78.5 53L80.1839 58.1824H85.6329L81.2245 61.3853L82.9084 66.5676L78.5 63.3647L74.0916 66.5676L75.7755 61.3853L71.3671 58.1824H76.8161L78.5 53Z" fill="#C4C4C4"/>
<path d="M61.5 53L63.1839 58.1824H68.6329L64.2245 61.3853L65.9084 66.5676L61.5 63.3647L57.0916 66.5676L58.7755 61.3853L54.3671 58.1824H59.8161L61.5 53Z" fill="#C4C4C4"/>
<path d="M10.5 79.618L11.7083 83.3369L11.8206 83.6824H12.1839H16.0941L12.9306 85.9807L12.6367 86.1943L12.749 86.5398L13.9573 90.2586L10.7939 87.9602L10.5 87.7467L10.2061 87.9602L7.04267 90.2586L8.25099 86.5398L8.36325 86.1943L8.06936 85.9807L4.90592 83.6824H8.81614H9.17942L9.29167 83.3369L10.5 79.618Z" fill="#E5EA00" fill-opacity="0.67" stroke="#F9E857"/>
<path d="M27.5 79.618L28.7083 83.3369L28.8206 83.6824H29.1839H33.0941L29.9306 85.9807L29.6367 86.1943L29.749 86.5398L30.9573 90.2586L27.7939 87.9602L27.5 87.7467L27.2061 87.9602L24.0427 90.2586L25.251 86.5398L25.3633 86.1943L25.0694 85.9807L21.9059 83.6824H25.8161H26.1794L26.2917 83.3369L27.5 79.618Z" fill="#E5EA00" fill-opacity="0.67" stroke="#F9E857"/>
<path d="M78.5 78L80.1839 83.1824H85.6329L81.2245 86.3853L82.9084 91.5676L78.5 88.3647L74.0916 91.5676L75.7755 86.3853L71.3671 83.1824H76.8161L78.5 78Z" fill="#C4C4C4"/>
<path d="M62.5 78L64.1839 83.1824H69.6329L65.2245 86.3853L66.9084 91.5676L62.5 88.3647L58.0916 91.5676L59.7755 86.3853L55.3671 83.1824H60.8161L62.5 78Z" fill="#C4C4C4"/>
<path d="M46.5 78L48.1839 83.1824H53.6329L49.2245 86.3853L50.9084 91.5676L46.5 88.3647L42.0916 91.5676L43.7755 86.3853L39.3671 83.1824H44.8161L46.5 78Z" fill="#C4C4C4"/>
<path d="M11.5 104.618L12.7083 108.337L12.8206 108.682H13.1839H17.0941L13.9306 110.981L13.6367 111.194L13.749 111.54L14.9573 115.259L11.7939 112.96L11.5 112.747L11.2061 112.96L8.04267 115.259L9.25099 111.54L9.36325 111.194L9.06936 110.981L5.90592 108.682H9.81614H10.1794L10.2917 108.337L11.5 104.618Z" fill="#E5EA00" fill-opacity="0.67" stroke="#F9E857"/>
<path d="M45.5 103L47.1839 108.182H52.6329L48.2245 111.385L49.9084 116.568L45.5 113.365L41.0916 116.568L42.7755 111.385L38.3671 108.182H43.8161L45.5 103Z" fill="#C4C4C4"/>
<path d="M28.5 103L30.1839 108.182H35.6329L31.2245 111.385L32.9084 116.568L28.5 113.365L24.0916 116.568L25.7755 111.385L21.3671 108.182H26.8161L28.5 103Z" fill="#C4C4C4"/>
<path d="M62.5 103L64.1839 108.182H69.6329L65.2245 111.385L66.9084 116.568L62.5 113.365L58.0916 116.568L59.7755 111.385L55.3671 108.182H60.8161L62.5 103Z" fill="#C4C4C4"/>
<path d="M79.5 103L81.1839 108.182H86.6329L82.2245 111.385L83.9084 116.568L79.5 113.365L75.0916 116.568L76.7755 111.385L72.3671 108.182H77.8161L79.5 103Z" fill="#C4C4C4"/>
</svg>
