<svg width="84" height="18" viewBox="0 0 84 18" fill="none" xmlns="http://www.w3.org/2000/svg">
<path d="M8.5 1.61803L9.70833 5.33688L9.82058 5.68237H10.1839H14.0941L10.9306 7.98075L10.6367 8.19427L10.749 8.53976L11.9573 12.2586L8.79389 9.96024L8.5 9.74671L8.20611 9.96024L5.04267 12.2586L6.25099 8.53976L6.36325 8.19427L6.06936 7.98075L2.90592 5.68237H6.81614H7.17942L7.29167 5.33688L8.5 1.61803Z" fill="#E5EA00" fill-opacity="0.67" stroke="#F9E857"/>
<path d="M25.5 1.61803L26.7083 5.33688L26.8206 5.68237H27.1839H31.0941L27.9306 7.98075L27.6367 8.19427L27.749 8.53976L28.9573 12.2586L25.7939 9.96024L25.5 9.74671L25.2061 9.96024L22.0427 12.2586L23.251 8.53976L23.3633 8.19427L23.0694 7.98075L19.9059 5.68237H23.8161H24.1794L24.2917 5.33688L25.5 1.61803Z" fill="#E5EA00" fill-opacity="0.67" stroke="#F9E857"/>
<path d="M42.5 1.61803L43.7083 5.33688L43.8206 5.68237H44.1839H48.0941L44.9306 7.98075L44.6367 8.19427L44.749 8.53976L45.9573 12.2586L42.7939 9.96024L42.5 9.74671L42.2061 9.96024L39.0427 12.2586L40.251 8.53976L40.3633 8.19427L40.0694 7.98075L36.9059 5.68237H40.8161H41.1794L41.2917 5.33688L42.5 1.61803Z" fill="#E5EA00" fill-opacity="0.67" stroke="#F9E857"/>
<path d="M76.5 0L78.1839 5.18237H83.6329L79.2245 8.38525L80.9084 13.5676L76.5 10.3647L72.0916 13.5676L73.7755 8.38525L69.3671 5.18237H74.8161L76.5 0Z" fill="#C4C4C4"/>
<path d="M59.5 1.61803L60.7083 5.33688L60.8206 5.68237H61.1839H65.0941L61.9306 7.98075L61.6367 8.19427L61.749 8.53976L62.9573 12.2586L59.7939 9.96024L59.5 9.74671L59.2061 9.96024L56.0427 12.2586L57.251 8.53976L57.3633 8.19427L57.0694 7.98075L53.9059 5.68237H57.8161H58.1794L58.2917 5.33688L59.5 1.61803Z" fill="#E5EA00" fill-opacity="0.67" stroke="#F9E857"/>
</svg>
