<svg width="1000" height="641" viewBox="0 0 1000 641" fill="none" xmlns="http://www.w3.org/2000/svg">
<path d="M966 107H34C31.2386 107 29 109.239 29 112V579C29 581.761 31.2386 584 34 584H966C968.761 584 971 581.761 971 579V112C971 109.239 968.761 107 966 107Z" fill="white"/>
<path d="M602.343 193.825H399.338V371.129H602.343V193.825Z" fill="#E2E2E2"/>
<path d="M469.454 206.855L475.686 231.781L473.015 268.281L497.051 286.975L505.063 224.66L500.612 209.526L469.454 206.855Z" fill="#FFB8B8"/>
<path d="M491.709 262.939L496.16 238.903L505.063 221.988L527.318 311.901L476.576 319.022L463.222 246.915L474.609 227.475L482.807 242.463L491.709 262.939Z" fill="white"/>
<path d="M548.967 371.129H464.548L465.003 364.424L484.581 351.964H511.29L548.683 367.989L548.967 371.129Z" fill="#2F2E41"/>
<path d="M486.368 220.209C498.168 220.209 507.733 210.644 507.733 198.844C507.733 187.044 498.168 177.479 486.368 177.479C474.568 177.479 465.003 187.044 465.003 198.844C465.003 210.644 474.568 220.209 486.368 220.209Z" fill="#FFB8B8"/>
<path d="M567.379 302.112L546.907 285.191L548.953 329.446L549.152 333.694L549.407 339.306L549.976 351.553L550.885 371.13H506.317L503.277 361.753L502.069 371.13H461.309C461.025 366.214 460.869 360.29 461.125 354.309C461.282 348.821 461.982 343.363 463.213 338.013C463.978 334.376 465.498 330.94 467.674 327.926L459.661 299.441L456.095 317.243L431.176 319.018C431.176 319.018 431.19 318.564 431.233 317.711V317.697C431.588 308.931 434.217 259.32 447.202 249.589L473.641 223.604C473.641 223.604 473.655 225.493 473.911 228.676V228.69C474.11 231.389 474.479 235.012 475.147 239.203V239.246C476.639 248.694 479.594 260.983 485.476 271.837C487.649 275.843 489.411 279.253 490.846 282.151C497.054 294.724 497.054 297.665 497.054 297.665L499.626 267.021L499.64 266.907L499.654 266.793L503.078 225.763L503.59 219.64V219.626C503.59 219.626 544.236 226.445 556.695 245.142C566.711 260.145 585.337 284.368 592.27 293.304C592.355 293.403 592.426 293.503 592.511 293.602L593.549 294.952C593.748 295.207 593.932 295.435 594.088 295.648C594.259 295.861 594.401 296.032 594.515 296.188L594.969 296.77L567.379 302.112Z" fill="#5FB39E"/>
<path d="M498.831 313.682C500.306 313.682 501.502 312.486 501.502 311.011C501.502 309.537 500.306 308.341 498.831 308.341C497.356 308.341 496.161 309.537 496.161 311.011C496.161 312.486 497.356 313.682 498.831 313.682Z" fill="#2F2E41"/>
<path d="M502.392 337.717C503.867 337.717 505.063 336.522 505.063 335.047C505.063 333.572 503.867 332.376 502.392 332.376C500.917 332.376 499.721 333.572 499.721 335.047C499.721 336.522 500.917 337.717 502.392 337.717Z" fill="#2F2E41"/>
<path d="M556.696 344.84L548.684 352.852L543.342 338.608L549.148 333.7L556.696 344.84Z" fill="#FFB8B8"/>
<path d="M455.21 348.401L463.222 356.412L465.003 338.608L459.661 336.827L455.21 348.401Z" fill="#FFB8B8"/>
<path d="M461.442 182.401C461.442 182.401 455.21 174.496 461.442 170.543V172.52C461.442 172.52 474.795 157.698 482.807 161.65L489.929 159.674V161.65L494.38 159.674L493.49 162.638H499.721L497.051 164.615C497.051 164.615 517.526 163.626 505.063 178.449C505.063 178.449 510.987 187.335 505.354 192.279C505.354 192.279 500.612 181.413 494.38 184.377C492.692 185.254 490.788 185.627 488.894 185.451C487 185.276 485.196 184.56 483.697 183.389C483.697 183.389 471.234 182.401 473.015 188.33C474.795 194.259 473.905 196.235 473.905 196.235C473.905 196.235 469.454 199.2 470.344 201.176C471.234 203.152 471.234 209.081 471.234 209.081C471.234 209.081 466.783 202.164 465.003 203.152C463.222 204.14 453.43 194.259 461.442 182.401Z" fill="#2F2E41"/>
<path d="M434.735 315.462L431.174 317.744V319.913C431.377 323.73 432.607 327.421 434.735 330.596C438.296 335.937 457.881 353.742 457.881 353.742L463.222 335.047L456.1 317.243L451.649 311.901L434.735 315.462Z" fill="#5FB39E"/>
<path d="M582.512 292.316L592.28 293.308L594.975 296.767C594.975 296.767 596.755 304.779 593.194 309.231C589.634 313.682 558.476 350.181 558.476 350.181L545.123 334.157L568.268 305.67L567.378 302.109L582.512 292.316Z" fill="#5FB39E"/>
<path d="M909.779 192.084H704.784V371.127H909.779V192.084Z" fill="#E2E2E2"/>
<path d="M831.438 231.004L785.146 231.894L778.914 189.164H831.438V231.004Z" fill="#2F2E41"/>
<path d="M854.138 237.681C854.138 237.681 870.162 237.681 871.943 254.595C873.723 271.509 867.492 315.13 867.492 315.13L862.15 371.214H849.6L850.577 328.483L854.138 267.058L843.456 255.485L854.138 237.681Z" fill="#A0616A"/>
<path d="M788.262 237.68C788.262 237.68 773.128 234.12 758.885 254.595C758.885 254.595 722.386 281.301 733.959 291.094C745.531 300.886 776.689 307.118 776.689 307.118C776.689 307.118 765.116 331.154 772.238 332.044C779.36 332.934 790.042 306.227 787.372 301.776C784.701 297.325 774.909 294.655 774.909 294.655L751.763 283.082C751.763 283.082 781.461 257.57 783.081 268.545L791.823 264.387L788.262 237.68Z" fill="#A0616A"/>
<path d="M821.2 207.413C823.081 213.799 826.379 219.678 830.849 224.61C835.319 229.543 840.846 233.402 847.016 235.9L823.871 255.485L796.274 237.681C796.274 237.681 806.066 231.449 803.396 218.096L821.2 207.413Z" fill="#A0616A"/>
<path d="M803.396 221.656C815.195 221.656 824.761 212.091 824.761 200.291C824.761 188.491 815.195 178.926 803.396 178.926C791.596 178.926 782.03 188.491 782.03 200.291C782.03 212.091 791.596 221.656 803.396 221.656Z" fill="#A0616A"/>
<path d="M784.701 235.9L800.95 232.715C800.95 232.715 806.066 244.802 822.981 243.022C839.895 241.241 842.876 233.935 842.876 233.935L858.589 237.68C858.589 237.68 849.687 247.473 854.138 267.058C854.138 267.058 855.919 299.106 846.126 310.678L845.236 328.483C845.236 328.483 856.809 358.75 850.577 371.213H763.336C763.336 371.213 766.897 326.702 782.921 315.129L786.482 307.117C786.482 307.117 779.36 275.96 782.921 270.618C782.921 270.619 785.591 236.79 784.701 235.9Z" fill="#5FB39E"/>
<path d="M844.014 220.366C839.164 217.703 836.907 211.725 836.747 206.195C836.585 200.664 837.927 195.19 838.032 189.658C838.087 188.526 837.99 187.393 837.745 186.286C837.343 184.913 836.716 183.616 835.891 182.447C829.584 172.783 818.621 165.985 807.073 165.878C805.405 165.856 803.748 166.161 802.196 166.775C801.003 167.253 800.612 167.194 800.383 168.66C797.648 167.758 794.681 167.852 792.009 168.926C789.361 170.003 786.892 171.473 784.685 173.288C783.373 174.264 782.135 175.335 780.982 176.494C774.88 182.816 773.474 192.56 775.242 201.167C775.817 203.965 773.059 206.667 770.777 208.386C768.495 210.104 765.86 211.683 764.74 214.311C763.662 216.838 764.254 219.729 764.037 222.469C763.793 225.058 762.831 227.528 761.258 229.6C759.685 231.671 757.564 233.262 755.135 234.192C755.631 234.786 756.277 235.234 757.007 235.491C757.736 235.747 758.521 235.802 759.278 235.649C760.86 235.316 762.34 234.612 763.596 233.594C768.319 230.094 771.698 225.08 773.17 219.389C773.84 222.437 773.58 225.581 773.556 228.702C773.614 232.185 772.973 235.645 771.669 238.875C770.343 242.121 767.915 244.795 764.811 246.427C767.804 247.892 771.103 246.83 773.64 244.668C776.071 242.36 777.827 239.434 778.72 236.203C780.422 231.046 781.112 225.609 780.753 220.19C783.537 224.878 784.555 230.406 783.622 235.778C782.648 241.255 779.788 246.218 775.539 249.808C782.948 249.745 790.234 247.91 796.789 244.456C798.482 243.689 799.974 242.54 801.148 241.1C803.257 238.174 802.758 234.183 802.166 230.625C801.698 227.811 805.214 223.744 803.201 221.723C802.68 221.198 801.992 220.87 801.256 220.796C793.968 219.756 787.413 215.57 784.256 208.919C782.891 206.185 782.143 203.184 782.065 200.129C782.066 196.919 782.791 193.751 784.184 190.859C785.578 187.968 787.605 185.427 790.115 183.427C792.625 181.426 795.554 180.017 798.684 179.304C801.813 178.59 805.063 178.591 808.193 179.307C811.322 180.022 814.25 181.433 816.759 183.435C819.268 185.437 821.293 187.979 822.685 190.872C824.077 193.764 824.799 196.933 824.798 200.143C824.797 203.353 824.072 206.521 822.679 209.413C822.446 213.719 821.732 217.986 820.55 222.134C819.026 227.438 816.446 232.85 811.67 235.617C813.34 236.332 815.134 236.712 816.95 236.735C822.942 237.395 829.244 237.25 834.667 234.618C840.09 231.986 844.401 226.382 844.014 220.366Z" fill="#2F2E41"/>
<path d="M828.767 195.395C812.751 188.976 796.962 187.606 781.585 195.395V182.456C781.585 181.35 781.803 180.254 782.226 179.231C782.65 178.209 783.271 177.28 784.053 176.497C784.836 175.715 785.765 175.094 786.787 174.671C787.809 174.247 788.905 174.029 790.012 174.029H822.109C823.875 174.029 825.568 174.731 826.817 175.979C828.065 177.228 828.767 178.921 828.767 180.687V195.395Z" fill="#2F2E41"/>
<path d="M824.761 203.407C826.605 203.407 828.099 201.016 828.099 198.066C828.099 195.116 826.605 192.725 824.761 192.725C822.917 192.725 821.423 195.116 821.423 198.066C821.423 201.016 822.917 203.407 824.761 203.407Z" fill="#A0616A"/>
<path d="M308.877 193.285H105.248V371.129H308.877V193.285Z" fill="#E2E2E2"/>
<path d="M221.662 236.135L178.042 235.246V174.711L221.662 179.162V236.135Z" fill="#2F2E41"/>
<path d="M261.61 371.129H167.347C167.958 367.703 169.009 364.37 170.472 361.213C173.143 356.311 176.482 345.627 179.153 336.166C180.701 330.682 182.023 325.61 182.861 322.328C183.472 319.927 183.827 318.478 183.827 318.478L230.114 299.781C230.114 299.781 231.421 302.154 233.523 306.146C233.551 306.206 233.584 306.263 233.623 306.316C235.114 309.144 236.99 312.781 239.064 316.943H239.078C246.665 332.06 257.022 354.251 261.61 371.129Z" fill="#2F2E41"/>
<path d="M186.944 210.319L180.712 241.477L202.078 243.257C202.078 243.257 205.639 215.661 206.529 214.77C207.419 213.88 186.944 210.319 186.944 210.319Z" fill="#FFB8B8"/>
<path d="M200.742 220.557C212.542 220.557 222.107 210.991 222.107 199.191C222.107 187.392 212.542 177.826 200.742 177.826C188.943 177.826 179.377 187.392 179.377 199.191C179.377 210.991 188.943 220.557 200.742 220.557Z" fill="#FFB8B8"/>
<path d="M180.712 232.574C180.712 232.574 201.187 237.025 202.077 236.135C202.968 235.245 227.004 239.696 228.784 247.708C230.564 255.72 226.113 286.878 226.113 286.878C226.113 286.878 235.906 291.329 235.016 293.109C234.125 294.89 240.357 296.67 238.576 299.341C236.796 302.011 204.748 348.303 189.614 347.413C174.481 346.522 146.884 245.927 146.884 245.927C146.884 245.927 147.774 233.464 159.347 233.464C170.92 233.464 180.712 232.574 180.712 232.574Z" fill="#5FB39E"/>
<path d="M239.022 304.237C239.022 304.237 226.543 307.061 228.776 312.771C231.01 318.481 244.363 316.7 244.363 316.7L239.022 304.237Z" fill="#FFB8B8"/>
<path d="M200.08 371.129H167.347C167.247 371.64 167.133 372.166 167.02 372.692C165.445 372.041 163.82 371.519 162.161 371.129C161.792 371.044 161.578 371.001 161.578 371.001C161.578 371.001 154.447 344.292 144.658 311.36C135.977 282.136 144.8 252.202 146.903 245.823V245.809C147.173 245.013 147.329 244.587 147.329 244.587L155.342 238.364L182.861 322.328L190.064 344.292C190.064 344.292 190.291 345.514 190.675 347.403C191.84 353.029 194.51 364.551 197.181 366.554C198.512 367.815 199.508 369.387 200.08 371.129V371.129Z" fill="#5FB39E"/>
<path d="M216.766 244.593L227.875 245.746L253.265 277.531C253.265 277.531 263.058 286.433 256.826 289.994C250.594 293.555 247.924 300.677 247.924 300.677C247.924 300.677 255.936 318.481 244.363 321.152C244.363 321.152 236.351 303.347 233.68 301.567C231.01 299.786 237.241 292.665 237.241 292.665L216.766 279.311L216.766 244.593Z" fill="#5FB39E"/>
<path d="M200.742 164.473C200.742 164.473 175.816 160.022 171.365 182.277C170.298 187.444 169.593 192.68 169.255 197.946C168.555 210.842 165.02 223.426 158.902 234.8L198.962 246.373C198.962 246.373 188.279 229.459 190.06 222.337C190.39 220.551 190.365 218.717 189.987 216.94C185.833 214.381 182.682 210.477 181.055 205.877C179.429 201.278 179.425 196.261 181.046 191.659C182.667 187.058 185.814 183.15 189.964 180.586C194.114 178.021 199.017 176.954 203.857 177.563C208.698 178.172 213.184 180.419 216.57 183.931C219.956 187.443 222.038 192.008 222.469 196.867C222.9 201.727 221.655 206.587 218.941 210.641C216.226 214.694 212.206 217.697 207.549 219.148C204.57 225.63 202.949 232.641 206.974 237.471C212.06 243.686 218.063 249.089 224.778 253.495C224.778 253.495 220.327 232.129 227.449 219.666C234.571 207.203 227.449 166.253 200.742 164.473Z" fill="#2F2E41"/>
<path d="M222.88 193.023L181.111 195.473L179.962 175.903L216.314 174.597L222.88 193.023Z" fill="#2F2E41"/>
<path d="M113.613 444.494C117.536 444.494 120.717 441.314 120.717 437.391C120.717 433.467 117.536 430.287 113.613 430.287C109.69 430.287 106.51 433.467 106.51 437.391C106.51 441.314 109.69 444.494 113.613 444.494Z" fill="#E2E2E2"/>
<path d="M113.613 484.274C117.536 484.274 120.717 481.094 120.717 477.171C120.717 473.248 117.536 470.067 113.613 470.067C109.69 470.067 106.51 473.248 106.51 477.171C106.51 481.094 109.69 484.274 113.613 484.274Z" fill="#E2E2E2"/>
<path d="M113.613 524.054C117.536 524.054 120.717 520.873 120.717 516.95C120.717 513.027 117.536 509.847 113.613 509.847C109.69 509.847 106.51 513.027 106.51 516.95C106.51 520.873 109.69 524.054 113.613 524.054Z" fill="#E2E2E2"/>
<path d="M278.415 431.708H143.448V443.074H278.415V431.708Z" fill="#E2E2E2"/>
<path d="M278.415 471.488H143.448V482.854H278.415V471.488Z" fill="#E2E2E2"/>
<path d="M278.415 511.268H143.448V522.633H278.415V511.268Z" fill="#E2E2E2"/>
<path d="M421.992 444.494C425.915 444.494 429.095 441.314 429.095 437.391C429.095 433.467 425.915 430.287 421.992 430.287C418.069 430.287 414.888 433.467 414.888 437.391C414.888 441.314 418.069 444.494 421.992 444.494Z" fill="#E2E2E2"/>
<path d="M421.992 484.274C425.915 484.274 429.095 481.094 429.095 477.171C429.095 473.248 425.915 470.067 421.992 470.067C418.069 470.067 414.888 473.248 414.888 477.171C414.888 481.094 418.069 484.274 421.992 484.274Z" fill="#E2E2E2"/>
<path d="M421.992 524.054C425.915 524.054 429.095 520.873 429.095 516.95C429.095 513.027 425.915 509.847 421.992 509.847C418.069 509.847 414.888 513.027 414.888 516.95C414.888 520.873 418.069 524.054 421.992 524.054Z" fill="#E2E2E2"/>
<path d="M586.793 431.708H451.826V443.074H586.793V431.708Z" fill="#E2E2E2"/>
<path d="M586.793 471.488H451.826V482.854H586.793V471.488Z" fill="#E2E2E2"/>
<path d="M586.793 511.268H451.826V522.633H586.793V511.268Z" fill="#E2E2E2"/>
<path d="M728.433 444.494C732.356 444.494 735.536 441.314 735.536 437.391C735.536 433.467 732.356 430.287 728.433 430.287C724.509 430.287 721.329 433.467 721.329 437.391C721.329 441.314 724.509 444.494 728.433 444.494Z" fill="#E2E2E2"/>
<path d="M728.433 484.274C732.356 484.274 735.536 481.094 735.536 477.171C735.536 473.248 732.356 470.067 728.433 470.067C724.509 470.067 721.329 473.248 721.329 477.171C721.329 481.094 724.509 484.274 728.433 484.274Z" fill="#E2E2E2"/>
<path d="M728.433 524.054C732.356 524.054 735.536 520.873 735.536 516.95C735.536 513.027 732.356 509.847 728.433 509.847C724.509 509.847 721.329 513.027 721.329 516.95C721.329 520.873 724.509 524.054 728.433 524.054Z" fill="#E2E2E2"/>
<path d="M893.234 431.708H758.267V443.074H893.234V431.708Z" fill="#E2E2E2"/>
<path d="M893.234 471.488H758.267V482.854H893.234V471.488Z" fill="#E2E2E2"/>
<path d="M893.234 511.268H758.267V522.633H893.234V511.268Z" fill="#E2E2E2"/>
</svg>
