<svg width="185" height="123" viewBox="0 0 185 123" fill="none" xmlns="http://www.w3.org/2000/svg">
<g clip-path="url(#clip0)">
<path d="M34.62 94.46C33.74 94.46 33.02 94.34 32.46 94.1C32.46 87.38 33.04 77.8 34.2 65.36L34.74 59.18C34.18 58.5 33.64 57.46 33.12 56.06C32.64 54.66 32.4 53.68 32.4 53.12L32.46 52.94C32.58 52.78 33.58 52.64 35.46 52.52C37.34 52.4 39.4 52.34 41.64 52.34C43.92 52.34 45.16 52.44 45.36 52.64C45.56 52.84 46.52 55.36 48.24 60.2C49.96 65 51.24 68.72 52.08 71.36C52.16 71.56 52.26 71.66 52.38 71.66C52.5 71.66 52.7 71.24 52.98 70.4C53.26 69.52 54.42 66.52 56.46 61.4C58.5 56.24 59.86 53.32 60.54 52.64C60.9 52.28 62.84 52.1 66.36 52.1C69.88 52.1 71.64 52.2 71.64 52.4C71.64 53.08 71.36 54.26 70.8 55.94C70.28 57.62 69.84 58.8 69.48 59.48C70.88 72.16 71.58 83.38 71.58 93.14C71.58 93.54 70.76 93.9 69.12 94.22C67.52 94.58 66.2 94.76 65.16 94.76C64.12 94.76 63.6 94.68 63.6 94.52C63.72 92.88 63.78 90.24 63.78 86.6C63.78 82.92 63.68 78.56 63.48 73.52C63.28 67.24 63.04 64.1 62.76 64.1L62.4 64.46C61.6 65.94 60.56 68.44 59.28 71.96C58.04 75.48 57 78.64 56.16 81.44L54.9 85.58C54.7 86.02 54.1 86.24 53.1 86.24C52.14 86.24 51.34 86.18 50.7 86.06C50.1 85.94 49.78 85.82 49.74 85.7C49.62 85.26 48.38 81.76 46.02 75.2C43.66 68.6 42.3 65.08 41.94 64.64C41.82 64.4 41.72 64.28 41.64 64.28C41.56 64.28 41.5 64.42 41.46 64.7C40.74 68.34 40.38 73.7 40.38 80.78C40.38 87.82 40.48 91.9 40.68 93.02C39.68 93.98 37.66 94.46 34.62 94.46ZM92.6709 89.72L92.6109 88.46L92.5509 88.34C91.5909 89.82 90.3709 91 88.8909 91.88C87.4509 92.76 86.0309 93.2 84.6309 93.2C80.4309 93.2 78.0309 89.94 77.4309 83.42C77.3509 82.38 77.3109 79.7 77.3109 75.38C77.3109 71.06 77.4909 68.5 77.8509 67.7C78.8909 66.86 80.5709 66.44 82.8909 66.44C83.8109 66.44 84.3709 66.54 84.5709 66.74C84.5709 66.78 84.5509 67.32 84.5109 68.36C84.3109 71.4 84.2109 73.74 84.2109 75.38C84.2109 77.02 84.2309 78.24 84.2709 79.04C84.3109 79.8 84.3309 80.3 84.3309 80.54C84.3709 80.74 84.4309 81.12 84.5109 81.68C84.6309 82.24 84.7909 82.72 84.9909 83.12C85.5909 84.28 86.5109 84.86 87.7509 84.86C89.0309 84.86 90.1509 84.24 91.1109 83C92.1109 81.72 92.5909 80.82 92.5509 80.3V78.26C92.5509 70.94 92.6709 67 92.9109 66.44C93.1109 66.08 93.7309 65.7 94.7709 65.3C95.8509 64.9 96.9109 64.7 97.9509 64.7C98.9909 64.7 99.5909 64.78 99.7509 64.94L99.6309 67.76C99.3909 73.48 99.2709 77.9 99.2709 81.02C99.2709 84.14 99.3509 86.12 99.5109 86.96C99.7909 88.96 100.331 90.56 101.131 91.76C101.131 92.16 100.311 92.8 98.6709 93.68C97.0309 94.56 95.6309 95 94.4709 95C94.1509 95 93.7909 94.4 93.3909 93.2C92.9909 92 92.7509 90.84 92.6709 89.72ZM122.807 85.1C122.807 87.26 121.787 89.2 119.747 90.92C117.747 92.6 115.567 93.8 113.207 94.52C110.887 95.28 108.847 95.66 107.087 95.66C106.887 95.66 106.607 95.42 106.247 94.94C105.247 93.62 104.747 92.08 104.747 90.32V89.9C107.867 89.9 110.247 89.36 111.887 88.28C113.527 87.2 114.347 86.08 114.347 84.92C114.347 84.16 113.847 83.36 112.847 82.52C111.847 81.68 110.747 80.94 109.547 80.3C108.347 79.66 107.247 78.82 106.247 77.78C105.247 76.7 104.747 75.58 104.747 74.42C104.747 71.98 106.267 69.74 109.307 67.7C112.347 65.66 115.587 64.64 119.027 64.64C119.427 64.64 119.947 65.2 120.587 66.32C121.227 67.4 121.567 68.52 121.607 69.68C120.807 69.68 119.607 69.92 118.007 70.4C114.847 71.4 113.267 72.64 113.267 74.12C113.267 75.16 114.827 76.58 117.947 78.38C119.147 79.06 120.247 80 121.247 81.2C122.247 82.4 122.767 83.7 122.807 85.1ZM132.794 56.18C133.914 56.18 134.814 56.54 135.494 57.26C136.174 57.98 136.514 58.92 136.514 60.08C136.514 61.24 136.054 62.24 135.134 63.08C134.254 63.88 133.254 64.28 132.134 64.28C131.054 64.28 130.174 63.94 129.494 63.26C128.854 62.54 128.534 61.6 128.534 60.44C128.534 59.28 128.974 58.28 129.854 57.44C130.734 56.6 131.714 56.18 132.794 56.18ZM135.854 71.12L135.734 80.84C135.734 83.96 135.814 86.26 135.974 87.74C136.174 89.18 136.694 90.54 137.534 91.82C137.534 92.22 136.714 92.86 135.074 93.74C133.434 94.62 132.034 95.06 130.874 95.06C130.514 95.06 130.154 94.46 129.794 93.26C129.434 92.06 129.194 90.92 129.074 89.84C128.994 88.76 128.954 85.12 128.954 78.92C128.954 72.72 129.094 69.34 129.374 68.78C130.294 68.06 131.914 67.7 134.234 67.7C135.154 67.7 135.714 67.82 135.914 68.06L135.854 71.12ZM155.157 93.74C150.597 93.74 147.217 92.58 145.017 90.26C142.817 87.94 141.717 85.02 141.717 81.5C141.717 76.58 143.357 72.66 146.637 69.74C149.957 66.82 153.997 65.36 158.757 65.36C159.677 65.36 160.217 65.38 160.377 65.42C160.617 65.62 160.737 66.58 160.737 68.3C160.737 70.02 160.497 71.06 160.017 71.42H159.597C156.517 71.42 154.017 72.14 152.097 73.58C151.297 74.18 150.597 75.12 149.997 76.4C149.397 77.68 149.097 79.22 149.097 81.02C149.097 82.82 149.637 84.32 150.717 85.52C151.797 86.68 153.537 87.26 155.937 87.26C157.817 87.26 159.477 86.9 160.917 86.18C161.077 86.1 161.177 86.06 161.217 86.06C161.537 86.38 161.697 87.46 161.697 89.3C161.697 91.14 161.477 92.24 161.037 92.6C159.717 93.36 157.757 93.74 155.157 93.74Z" fill="white"/>
<path d="M64.93 41.93C62.01 41.93 59.8 41.09 58.3 39.41C56.8 37.73 56.05 35.56 56.05 32.9C56.05 30.64 56.55 28.54 57.55 26.6C58.13 25.46 58.86 24.46 59.74 23.6C60.62 22.74 61.81 22.03 63.31 21.47C64.81 20.91 66.51 20.63 68.41 20.63C69.05 20.63 69.62 20.69 70.12 20.81C70.62 20.93 70.87 21.01 70.87 21.05C70.87 22.01 70.8 23.11 70.66 24.35C70.54 25.57 70.47 26.19 70.45 26.21C70.35 26.31 69.93 26.47 69.19 26.69C68.47 26.91 67.93 27.02 67.57 27.02V26.84C67.57 25.94 67.44 25.31 67.18 24.95C66.92 24.59 66.47 24.41 65.83 24.41C64.41 24.41 63.09 25.16 61.87 26.66C60.65 28.14 60.04 30.18 60.04 32.78C60.04 34.16 60.38 35.4 61.06 36.5C61.42 37.08 61.94 37.55 62.62 37.91C63.32 38.27 64.14 38.45 65.08 38.45C66.96 38.45 68.79 37.58 70.57 35.84C70.65 35.84 70.81 35.97 71.05 36.23C71.31 36.47 71.56 36.8 71.8 37.22C72.3 38.02 72.55 38.51 72.55 38.69C72.55 38.87 72.24 39.21 71.62 39.71C71 40.19 70.06 40.68 68.8 41.18C67.54 41.68 66.25 41.93 64.93 41.93ZM86.0083 34.76C86.0083 36.66 85.4283 38.31 84.2683 39.71C83.1283 41.09 81.5683 41.78 79.5883 41.78C77.6283 41.78 76.0883 41.17 74.9683 39.95C73.8483 38.73 73.2883 37.15 73.2883 35.21C73.2883 33.25 73.9783 31.52 75.3583 30.02C76.7583 28.5 78.6383 27.74 80.9983 27.74C81.9583 27.78 82.4783 27.84 82.5583 27.92C82.6383 28 82.6783 28.19 82.6783 28.49C82.6783 28.79 82.6483 29.12 82.5883 29.48C82.8883 29.48 83.2683 29.66 83.7283 30.02C84.2083 30.36 84.5983 30.71 84.8983 31.07C85.1983 31.43 85.4583 31.94 85.6783 32.6C85.8983 33.24 86.0083 33.96 86.0083 34.76ZM81.6283 32.66C81.1683 32.36 80.7183 32.21 80.2783 32.21H80.0383C79.9983 32.13 79.9783 31.96 79.9783 31.7C79.9783 31.44 80.0083 31.19 80.0683 30.95C79.2483 30.95 78.4783 31.32 77.7583 32.06C77.0583 32.8 76.7083 33.83 76.7083 35.15C76.7083 36.71 77.2083 37.79 78.2083 38.39C78.5883 38.63 79.1083 38.75 79.7683 38.75C80.4483 38.75 81.0783 38.44 81.6583 37.82C82.2583 37.2 82.5583 36.28 82.5583 35.06C82.5583 33.84 82.2483 33.04 81.6283 32.66ZM95.1995 39.86L95.1695 39.23L95.1395 39.17C94.6595 39.91 94.0495 40.5 93.3095 40.94C92.5895 41.38 91.8795 41.6 91.1795 41.6C89.0795 41.6 87.8795 39.97 87.5795 36.71C87.5395 36.19 87.5195 34.85 87.5195 32.69C87.5195 30.53 87.6095 29.25 87.7895 28.85C88.3095 28.43 89.1495 28.22 90.3095 28.22C90.7695 28.22 91.0495 28.27 91.1495 28.37C91.1495 28.39 91.1395 28.66 91.1195 29.18C91.0195 30.7 90.9695 31.87 90.9695 32.69C90.9695 33.51 90.9795 34.12 90.9995 34.52C91.0195 34.9 91.0295 35.15 91.0295 35.27C91.0495 35.37 91.0795 35.56 91.1195 35.84C91.1795 36.12 91.2595 36.36 91.3595 36.56C91.6595 37.14 92.1195 37.43 92.7395 37.43C93.3795 37.43 93.9395 37.12 94.4195 36.5C94.9195 35.86 95.1595 35.41 95.1395 35.15V34.13C95.1395 30.47 95.1995 28.5 95.3195 28.22C95.4195 28.04 95.7295 27.85 96.2495 27.65C96.7895 27.45 97.3195 27.35 97.8395 27.35C98.3595 27.35 98.6595 27.39 98.7395 27.47L98.6795 28.88C98.5595 31.74 98.4995 33.95 98.4995 35.51C98.4995 37.07 98.5395 38.06 98.6195 38.48C98.7595 39.48 99.0295 40.28 99.4295 40.88C99.4295 41.08 99.0195 41.4 98.1995 41.84C97.3795 42.28 96.6795 42.5 96.0995 42.5C95.9395 42.5 95.7595 42.2 95.5595 41.6C95.3595 41 95.2395 40.42 95.1995 39.86ZM104.56 34.25L104.59 35.36V37.64C104.59 39.78 104.55 40.89 104.47 40.97C104.21 41.23 103.76 41.43 103.12 41.57C102.48 41.71 101.95 41.78 101.53 41.78C101.13 41.78 100.93 41.75 100.93 41.69C101.07 40.79 101.14 39.31 101.14 37.25L101.05 30.5C101.05 29.26 101.1 28.59 101.2 28.49C101.42 28.27 101.8 28.08 102.34 27.92C102.88 27.74 103.38 27.65 103.84 27.65C104.32 27.65 104.56 27.7 104.56 27.8C104.5 28.28 104.47 28.76 104.47 29.24C104.47 29.72 104.5 29.96 104.56 29.96L104.65 29.9C104.75 29.76 104.9 29.59 105.1 29.39C105.3 29.17 105.72 28.89 106.36 28.55C107.02 28.19 107.64 28.01 108.22 28.01C108.82 28.01 109.32 28.12 109.72 28.34C110.14 28.54 110.48 28.79 110.74 29.09C111 29.39 111.22 29.82 111.4 30.38C111.6 30.94 111.75 31.46 111.85 31.94C111.95 32.42 112.03 33.06 112.09 33.86C112.15 34.96 112.18 36.36 112.18 38.06L112.09 41.57C112.09 41.71 111.76 41.84 111.1 41.96C110.44 42.1 109.91 42.17 109.51 42.17L108.52 42.02C108.72 40.22 108.82 38.48 108.82 36.8C108.82 35.1 108.71 33.83 108.49 32.99C108.27 32.13 107.83 31.7 107.17 31.7C106.51 31.7 105.97 31.88 105.55 32.24C105.15 32.6 104.89 32.96 104.77 33.32L104.56 33.83V34.25ZM118.086 21.35C118.046 21.81 117.996 23.07 117.936 25.13C119.436 25.13 120.186 25.16 120.186 25.22C120.186 25.9 120.086 26.51 119.886 27.05C119.686 27.57 119.496 27.83 119.316 27.83H117.906C117.866 30.79 117.846 33.2 117.846 35.06C117.846 36.9 117.876 38.13 117.936 38.75C118.056 39.79 118.466 40.64 119.166 41.3C119.166 41.52 118.776 41.84 117.996 42.26C117.236 42.68 116.516 42.89 115.836 42.89C115.776 42.89 115.656 42.79 115.476 42.59C115.316 42.39 115.136 42.06 114.936 41.6C114.756 41.14 114.636 40.69 114.576 40.25C114.536 39.81 114.516 38.24 114.516 35.54C114.516 32.84 114.546 30.29 114.606 27.89L112.926 27.92C112.826 27.82 112.776 27.39 112.776 26.63C112.776 25.85 112.866 25.38 113.046 25.22C113.486 25.2 114.016 25.18 114.636 25.16C114.636 24 114.606 23.25 114.546 22.91C114.486 22.57 114.456 22.37 114.456 22.31C114.456 22.11 114.796 21.88 115.476 21.62C116.176 21.36 116.786 21.23 117.306 21.23C117.826 21.23 118.086 21.27 118.086 21.35ZM120.708 36.95L120.648 30.14C120.648 28.96 120.688 28.33 120.768 28.25C120.988 28.03 121.368 27.84 121.908 27.68C122.448 27.5 122.948 27.41 123.408 27.41C123.888 27.41 124.128 27.46 124.128 27.56C124.068 28.1 124.038 28.72 124.038 29.42C124.038 30.1 124.058 30.44 124.098 30.44C124.138 30.44 124.178 30.42 124.218 30.38C124.258 30.32 124.318 30.24 124.398 30.14C124.498 30.02 124.688 29.82 124.968 29.54C125.268 29.26 125.588 29.02 125.928 28.82C126.788 28.26 127.708 27.98 128.688 27.98C128.848 28.24 128.928 28.64 128.928 29.18C128.928 30.32 128.788 31.13 128.508 31.61L128.388 31.85L127.998 31.79C126.558 31.79 125.428 32.38 124.608 33.56C124.288 34.04 124.128 34.4 124.128 34.64V37.28C124.128 39.68 124.098 40.91 124.038 40.97C123.478 41.51 122.378 41.78 120.738 41.78C120.578 41.78 120.498 41.75 120.498 41.69C120.638 40.91 120.708 39.33 120.708 36.95ZM140.604 32.63L140.634 40.61C140.634 42.17 140.424 43.56 140.004 44.78C139.604 46 139.104 46.94 138.504 47.6C137.924 48.26 137.254 48.8 136.494 49.22C135.254 49.92 133.994 50.27 132.714 50.27C132.654 50.27 132.534 50.12 132.354 49.82C132.174 49.52 132.004 49.11 131.844 48.59C131.684 48.09 131.604 47.62 131.604 47.18C132.364 47.18 133.124 47.03 133.884 46.73C134.644 46.45 135.174 46.14 135.474 45.8C135.774 45.48 136.074 45.07 136.374 44.57C136.994 43.59 137.304 42 137.304 39.8L137.274 38.93C137.274 38.81 137.254 38.75 137.214 38.75C137.174 38.75 137.134 38.78 137.094 38.84C137.054 38.9 137.004 38.98 136.944 39.08C136.884 39.16 136.734 39.32 136.494 39.56C136.274 39.78 136.034 39.98 135.774 40.16C135.074 40.64 134.364 40.88 133.644 40.88C132.944 40.88 132.384 40.79 131.964 40.61C131.564 40.43 131.224 40.2 130.944 39.92C130.684 39.64 130.464 39.25 130.284 38.75C130.104 38.23 129.964 37.75 129.864 37.31C129.764 36.87 129.694 36.27 129.654 35.51C129.574 34.45 129.534 33.35 129.534 32.21C129.534 30.63 129.614 29.34 129.774 28.34L129.864 27.92C129.864 27.78 130.164 27.64 130.764 27.5C131.384 27.36 131.894 27.29 132.294 27.29L133.254 27.44C133.034 29.42 132.924 31.09 132.924 32.45C132.924 33.81 133.064 34.94 133.344 35.84C133.624 36.74 134.094 37.19 134.754 37.19C135.414 37.19 135.934 37 136.314 36.62C136.714 36.22 136.964 35.83 137.064 35.45L137.214 34.88C137.174 33.62 137.154 32.27 137.154 30.83C137.154 29.37 137.204 28.59 137.304 28.49C137.564 28.23 138.014 28.03 138.654 27.89C139.314 27.75 139.844 27.68 140.244 27.68C140.644 27.68 140.844 27.71 140.844 27.77C140.684 28.71 140.604 30.33 140.604 32.63Z" fill="#84DCC6"/>
</g>
<defs>
<clipPath id="clip0">
<rect width="185" height="123" fill="white"/>
</clipPath>
</defs>
</svg>
