<svg width="461" height="350" viewBox="0 0 461 350" fill="none" xmlns="http://www.w3.org/2000/svg">
<g clip-path="url(#clip0)">
<path d="M235.325 6.53809L110.884 75.8329C113.012 79.5991 114.383 83.766 114.916 88.0868C115.448 92.4077 115.132 96.7945 113.985 100.987C112.838 105.18 110.885 109.094 108.24 112.496C105.595 115.898 102.313 118.72 98.5876 120.795C94.8624 122.869 90.7701 124.154 86.5532 124.572C82.3362 124.991 78.0805 124.535 74.038 123.232C69.9956 121.929 66.2487 119.804 63.0194 116.985C59.7902 114.166 57.1442 110.709 55.2384 106.819L12.8076 130.447L122.716 339.05L345.233 215.142L235.325 6.53809Z" fill="#95A3B3"/>
<path opacity="0.2" d="M109.07 189.258L86.2227 182.983L80.1192 206.472L102.967 212.746L109.07 189.258Z" fill="#230FD4"/>
<path d="M140.922 283.778C122.659 312.571 127.663 349.192 127.663 349.192C127.663 349.192 162.278 339.13 180.541 310.338C198.804 281.545 193.8 244.924 193.8 244.924C193.8 244.924 159.185 254.985 140.922 283.778Z" fill="#3F3D56"/>
<path d="M127.567 348.857C127.567 348.857 127.122 348.784 126.304 348.614C125.651 348.478 124.752 348.283 123.655 348.016C113.846 345.638 87.7657 337.6 70.715 316.468C49.3743 290.007 50.273 253.038 50.273 253.038C50.273 253.038 82.9035 258.489 104.405 282.251C105.337 283.273 106.243 284.331 107.125 285.427C125.694 308.45 127.425 339.429 127.562 347.087C127.581 348.234 127.567 348.857 127.567 348.857Z" fill="#4B4E6C"/>
<path d="M114.404 283.778C132.667 312.571 127.663 349.192 127.663 349.192C127.663 349.192 93.0486 339.13 74.7855 310.338C56.5224 281.545 61.5265 244.924 61.5265 244.924C61.5265 244.924 96.1409 254.985 114.404 283.778Z" stroke="#3F3D56" stroke-width="2" stroke-miterlimit="10"/>
<path opacity="0.1" d="M127.561 347.087C127.079 347.685 126.653 348.196 126.303 348.614C125.527 349.523 125.087 350 125.087 350C125.087 350 124.553 349.309 123.654 348.016C118.721 340.946 102.853 315.807 104.078 286.769C104.144 285.247 104.253 283.741 104.404 282.252C105.336 283.273 106.243 284.331 107.124 285.427C125.693 308.451 127.424 339.429 127.561 347.087Z" fill="black"/>
<path d="M154.64 288.869C153.197 323.211 128.4 350 128.4 350C128.4 350 105.943 321.111 107.387 286.77C108.831 252.428 133.628 225.639 133.628 225.639C133.628 225.639 156.084 254.528 154.64 288.869Z" fill="white"/>
<path d="M15.8254 300.104C17.5326 300.104 18.9165 298.681 18.9165 296.926C18.9165 295.171 17.5326 293.748 15.8254 293.748C14.1183 293.748 12.7344 295.171 12.7344 296.926C12.7344 298.681 14.1183 300.104 15.8254 300.104Z" fill="#FF6584"/>
<path d="M77.0947 349.086H206.217" stroke="#3F3D56" stroke-width="2" stroke-miterlimit="10"/>
<path d="M0 349.086H61.0137" stroke="#3F3D56" stroke-width="2" stroke-miterlimit="10"/>
<path d="M30.9688 349.67V313.488" stroke="#3F3D56" stroke-width="2" stroke-miterlimit="10"/>
<path d="M30.9692 318.604C33.7179 318.604 35.9462 316.314 35.9462 313.488C35.9462 310.662 33.7179 308.371 30.9692 308.371C28.2205 308.371 25.9922 310.662 25.9922 313.488C25.9922 316.314 28.2205 318.604 30.9692 318.604Z" fill="#3F3D56"/>
<path d="M30.9692 335.788C30.9692 335.788 30.2582 320.067 15.6826 321.894L30.9692 335.788Z" fill="#3F3D56"/>
<path d="M130.896 217.643C136.196 217.643 140.492 213.226 140.492 207.777C140.492 202.329 136.196 197.912 130.896 197.912C125.596 197.912 121.3 202.329 121.3 207.777C121.3 213.226 125.596 217.643 130.896 217.643Z" fill="#3F3D56"/>
<path d="M100.798 214.953C104.653 214.953 107.777 211.741 107.777 207.778C107.777 203.816 104.653 200.604 100.798 200.604C96.9439 200.604 93.8193 203.816 93.8193 207.778C93.8193 211.741 96.9439 214.953 100.798 214.953Z" stroke="#3F3D56" stroke-width="2" stroke-miterlimit="10"/>
<path d="M160.993 214.953C164.847 214.953 167.972 211.741 167.972 207.778C167.972 203.816 164.847 200.604 160.993 200.604C157.138 200.604 154.014 203.816 154.014 207.778C154.014 211.741 157.138 214.953 160.993 214.953Z" stroke="#3F3D56" stroke-width="2" stroke-miterlimit="10"/>
<path d="M432.417 142.004C437.717 142.004 442.014 137.587 442.014 132.139C442.014 126.69 437.717 122.273 432.417 122.273C427.118 122.273 422.821 126.69 422.821 132.139C422.821 137.587 427.118 142.004 432.417 142.004Z" fill="#3F3D56"/>
<path d="M233.941 14.8359C237.795 14.8359 240.92 11.6236 240.92 7.66109C240.92 3.69858 237.795 0.486328 233.941 0.486328C230.087 0.486328 226.962 3.69858 226.962 7.66109C226.962 11.6236 230.087 14.8359 233.941 14.8359Z" stroke="#3F3D56" stroke-width="2" stroke-miterlimit="10"/>
<path d="M154.607 59.5702C158.461 59.5702 161.586 56.358 161.586 52.3955C161.586 48.433 158.461 45.2207 154.607 45.2207C150.753 45.2207 147.628 48.433 147.628 52.3955C147.628 56.358 150.753 59.5702 154.607 59.5702Z" stroke="#3F3D56" stroke-width="2" stroke-miterlimit="10"/>
<path d="M309.793 86.014C322.269 86.014 332.383 75.6161 332.383 62.7897C332.383 49.9633 322.269 39.5654 309.793 39.5654C297.316 39.5654 287.202 49.9633 287.202 62.7897C287.202 75.6161 297.316 86.014 309.793 86.014Z" fill="#FF6584"/>
<path d="M361.79 268.003L373.865 318.056L385.939 316.054L373.865 258.794L361.79 268.003Z" fill="#FBBEBE"/>
<path d="M378.148 314.853C378.148 314.853 371.272 317.243 372.178 318.851C373.084 320.459 373.084 330.469 369.968 334.073C366.853 337.677 359.063 348.889 368.021 349.289C376.979 349.689 385.938 343.683 385.938 343.683V333.272L387.496 342.882H389.054V332.071C389.054 332.071 392.949 325.264 390.612 321.26C388.275 317.256 386.751 313.766 383.813 314.109C380.874 314.453 378.148 314.853 378.148 314.853Z" fill="#2F2E41"/>
<path d="M314.272 310.448L312.324 321.26H325.957V310.448H314.272Z" fill="#FBBEBE"/>
<path d="M315.44 318.857C315.44 318.857 311.545 318.456 310.377 324.062C309.209 329.668 298.692 341.566 294.797 342.768C290.902 343.969 290.902 347.973 295.966 348.774C301.029 349.575 313.882 349.975 316.998 345.571C320.114 341.166 324.399 334.073 324.399 334.073L322.451 349.174H325.957C325.957 349.174 329.073 334.473 332.189 330.869C335.305 327.266 325.957 318.857 324.399 318.857H315.44Z" fill="#2F2E41"/>
<path d="M296.354 146.677C296.354 146.677 293.628 154.285 288.954 155.486C284.28 156.687 249.615 165.096 249.615 165.096C249.615 165.096 219.235 165.897 228.582 172.704C237.93 179.511 253.12 172.704 253.12 172.704C253.12 172.704 297.523 167.098 301.028 161.092C303.336 157.004 305.291 152.717 306.87 148.278L296.354 146.677Z" fill="#FBBEBE"/>
<path d="M311.156 113.042C311.156 113.042 288.955 150.281 291.681 151.082C294.408 151.883 319.725 160.291 320.893 157.088C322.062 153.885 322.062 139.069 322.062 139.069L311.156 113.042Z" fill="#2F2E41"/>
<path opacity="0.1" d="M311.156 113.042C311.156 113.042 288.955 150.281 291.681 151.082C294.408 151.883 319.725 160.291 320.893 157.088C322.062 153.885 322.062 139.069 322.062 139.069L311.156 113.042Z" fill="black"/>
<path d="M368.801 104.232L419.045 130.66C419.045 130.66 447.478 138.268 441.247 144.274C435.015 150.281 414.761 139.069 414.761 139.069L359.063 113.042L368.801 104.232Z" fill="#FBBEBE"/>
<path d="M304.534 83.4112C304.534 83.4112 314.271 98.6271 313.492 102.231C313.492 102.231 314.271 104.633 313.103 106.235C311.935 107.837 312.324 117.447 312.324 117.447L316.219 123.053L321.282 105.835L323.619 87.4155C323.619 87.4155 318.361 80.0077 319.14 76.404C319.919 72.8002 304.534 83.4112 304.534 83.4112Z" fill="#FBBEBE"/>
<path d="M335.305 169.901C335.305 169.901 313.493 229.964 313.493 256.392C313.493 282.819 305.314 312.851 311.546 315.654C317.778 318.457 349.326 318.857 350.105 315.654C350.884 312.45 346.211 182.314 343.874 177.109C341.537 171.904 335.305 169.901 335.305 169.901Z" fill="#2F2E41"/>
<path opacity="0.1" d="M335.305 169.901C335.305 169.901 313.493 229.964 313.493 256.392C313.493 282.819 305.314 312.851 311.546 315.654C317.778 318.457 349.326 318.857 350.105 315.654C350.884 312.45 346.211 182.314 343.874 177.109C341.537 171.904 335.305 169.901 335.305 169.901Z" fill="black"/>
<path d="M309.598 85.8136C317.557 85.8136 324.009 79.1805 324.009 70.9981C324.009 62.8157 317.557 56.1826 309.598 56.1826C301.639 56.1826 295.187 62.8157 295.187 70.9981C295.187 79.1805 301.639 85.8136 309.598 85.8136Z" fill="#FBBEBE"/>
<path d="M313.882 115.845L312.839 106.809C312.839 106.809 309.597 111.44 309.597 115.044C309.597 118.648 307.65 131.461 315.829 139.47C324.008 147.478 325.566 149.08 325.956 150.681C326.345 152.283 328.293 152.283 328.293 152.283L339.588 199.132C339.588 199.132 343.094 323.662 348.547 325.264C353.999 326.866 370.748 325.264 371.916 323.262C373.085 321.26 369.969 268.004 369.969 268.004C369.969 268.004 378.538 315.253 381.653 315.253C384.769 315.253 386.717 308.446 385.938 308.046C385.159 307.646 380.485 276.813 378.537 267.203C376.59 257.593 377.369 176.308 377.369 176.308C377.369 176.308 383.601 165.897 362.179 145.476C362.179 145.476 348.547 104.633 347.768 104.633C346.989 104.633 331.798 82.6104 331.798 82.6104C331.798 82.6104 323.229 82.6104 321.671 87.8158C320.114 93.0212 313.882 115.845 313.882 115.845Z" fill="#2F2E41"/>
<path d="M327.125 85.8137L331.799 82.6104C331.799 82.6104 351.274 94.6229 364.906 95.4237C378.538 96.2246 378.149 104.233 372.696 109.839C367.243 115.445 345.821 134.665 345.042 129.86C344.263 125.055 327.125 85.8137 327.125 85.8137Z" fill="#2F2E41"/>
<path d="M309.793 65.9926C318.397 65.9926 325.372 61.69 325.372 56.3825C325.372 51.075 318.397 46.7725 309.793 46.7725C301.188 46.7725 294.213 51.075 294.213 56.3825C294.213 61.69 301.188 65.9926 309.793 65.9926Z" fill="#FF6584"/>
<path d="M311.351 49.1752C316.513 49.1752 320.699 44.8726 320.699 39.5651C320.699 34.2576 316.513 29.9551 311.351 29.9551C306.188 29.9551 302.003 34.2576 302.003 39.5651C302.003 44.8726 306.188 49.1752 311.351 49.1752Z" fill="#FF6584"/>
<path d="M298.886 34.36C298.886 31.9846 299.742 29.6934 301.288 27.9284C302.835 26.1634 304.962 25.0496 307.26 24.802C306.937 24.7674 306.612 24.7501 306.286 24.75C303.807 24.75 301.429 25.7625 299.676 27.5647C297.923 29.3669 296.938 31.8113 296.938 34.36C296.938 36.9088 297.923 39.3531 299.676 41.1554C301.429 42.9576 303.807 43.9701 306.286 43.9701C306.612 43.97 306.937 43.9527 307.26 43.9181C304.962 43.6705 302.835 42.5567 301.288 40.7917C299.742 39.0267 298.886 36.7355 298.886 34.36Z" fill="#FF6584"/>
<path d="M81.6184 118.586C95.8064 118.586 107.308 106.762 107.308 92.1759C107.308 77.5899 95.8064 65.7656 81.6184 65.7656C67.4304 65.7656 55.9287 77.5899 55.9287 92.1759C55.9287 106.762 67.4304 118.586 81.6184 118.586Z" fill="#4B4E6D"/>
<path d="M234.358 349.3H419.764" stroke="#3F3D56" stroke-width="2" stroke-miterlimit="10"/>
</g>
<defs>
<clipPath id="clip0">
<rect width="461" height="350" fill="white"/>
</clipPath>
</defs>
</svg>
